Coordinates
version=1
nRows=26
nColumns=24
inDegrees=yes

Units are S.I. units (second, meters, Newtons, ...)
Angles are in degrees.

endheader
time	pelvis_tilt	pelvis_list	pelvis_rotation	pelvis_tx	pelvis_ty	pelvis_tz	hip_flexion_r	hip_adduction_r	hip_rotation_r	knee_angle_r	ankle_angle_r	subtalar_angle_r	mtp_angle_r	hip_flexion_l	hip_adduction_l	hip_rotation_l	knee_angle_l	ankle_angle_l	subtalar_angle_l	mtp_angle_l	lumbar_extension	lumbar_bending	lumbar_rotation
      3.76500000	    -11.09981755	      0.88422851	      4.39223714	     -1.61284524	     -0.02421944	     -0.75898900	     34.07811736	     -3.18862577	    -16.43243122	     -9.79214550	     -5.18794265	     -1.56363471	     15.36271805	     -4.54678387	      3.84715128	    -13.73670207	    -11.20918509	     10.60026068	      7.39815699	      9.95638718	      7.45558760	      0.42912333	    -10.00589207
      3.77000000	    -11.07917874	      0.79749094	      4.41580450	     -1.60615092	     -0.02494044	     -0.75853414	     34.06391203	     -3.03062084	    -15.83207973	    -10.44703973	     -5.31356081	     -2.33256283	     14.65903399	     -4.68271806	      3.57099561	    -13.70804840	    -11.83582758	     10.40377823	      7.59650400	      9.85107175	      7.57821703	      0.56679403	    -10.10459471
      3.77500000	    -11.05963699	      0.75227361	      4.27115531	     -1.59941639	     -0.02569820	     -0.75778091	     34.11225666	     -2.80363117	    -15.05733789	    -11.23614412	     -5.45999528	     -3.15780349	     13.04433282	     -4.83657716	      3.33207662	    -13.92169056	    -12.44889213	     10.20734393	      7.95360404	      9.66204535	      7.69562734	      0.68191362	    -10.01385891
      3.78000000	    -11.06356830	      0.58235055	      4.37116609	     -1.59267104	     -0.02631007	     -0.75738928	     34.10850355	     -2.63336975	    -14.75456502	    -11.89786709	     -5.91697059	     -3.95648666	     12.63888969	     -4.89282964	      2.95653699	    -13.71886511	    -13.14714537	      9.92027598	      8.05943567	      9.62113169	      7.85221454	      0.89630388	    -10.24342876
      3.78500000	    -11.08159548	      0.42826126	      4.29101812	     -1.58587273	     -0.02693988	     -0.75662307	     34.13175869	     -2.34231356	    -14.13863284	    -12.53656817	     -6.51019285	     -5.07288052	     11.94399715	     -4.92517545	      2.58438657	    -13.77620555	    -13.88328370	      9.59785690	      8.25711988	      9.52694537	      8.02320030	      1.10030696	    -10.23730629
      3.79000000	    -11.09394268	      0.25876214	      4.15423338	     -1.57905225	     -0.02751183	     -0.75571706	     34.18217757	     -2.00033192	    -13.45052395	    -13.31332032	     -6.78064398	     -5.89184246	      9.25686051	     -4.92970760	      2.16399080	    -14.08639851	    -14.69147686	      9.31270696	      8.71431447	      9.35024017	      8.18712898	      1.33346367	    -10.16717477
      3.79500000	    -11.11947267	      0.08191551	      4.08617846	     -1.57225741	     -0.02796219	     -0.75493670	     34.21594809	     -1.72535561	    -13.02773415	    -13.93676675	     -7.45283855	     -6.97525443	      8.80029882	     -4.89396528	      1.75929996	    -14.10849740	    -15.50591639	      8.81987472	      8.81660516	      9.25463094	      8.36293080	      1.56292679	    -10.19711281
      3.80000000	    -11.16500753	     -0.16325554	      3.92144887	     -1.56538351	     -0.02837266	     -0.75402000	     34.27612615	     -1.32860191	    -12.54721695	    -14.57363641	     -8.04816729	     -8.03813860	      7.74781833	     -4.80418327	      1.26144760	    -14.33516933	    -16.39653735	      8.37450528	      9.07581861	      9.12733549	      8.57201799	      1.88835235	    -10.09847108
      3.80500000	    -11.21036035	     -0.45009357	      3.94689639	     -1.55847460	     -0.02856371	     -0.75338948	     34.28732855	     -1.03825439	    -12.45765471	    -15.15306889	     -8.60108668	     -8.97409996	      7.28147586	     -4.65551053	      0.72599819	    -14.22005753	    -17.33391815	      7.73271590	      9.09207587	      9.01729327	      8.79892941	      2.22326201	    -10.22879575
      3.81000000	    -11.25290385	     -0.67898429	      3.67161595	     -1.55167537	     -0.02881494	     -0.75219259	     34.35240595	     -0.57093131	    -11.77888341	    -15.82659615	     -8.94208564	    -10.06653602	      5.41298674	     -4.47986026	      0.20764414	    -14.67163026	    -18.37984983	      7.17263081	      9.41197183	      8.84838396	      8.97763860	      2.53687541	    -10.04152261
      3.81500000	    -11.29891626	     -0.91790493	      3.57710217	     -1.54487677	     -0.02882560	     -0.75125725	     34.36528999	     -0.21995934	    -11.40812910	    -16.43212166	     -9.25640713	    -11.05985666	      4.11574360	     -4.23655344	     -0.30910445	    -14.74605430	    -19.46725884	      6.36406161	      9.45128952	      8.71888301	      9.17101779	      2.82598279	    -10.04828575
      3.82000000	    -11.31115893	     -1.18107557	      3.56489883	     -1.53806350	     -0.02871006	     -0.75053056	     34.30228439	      0.08491145	    -11.23468764	    -16.98606353	     -9.47591713	    -11.91979909	      3.59251123	     -3.95660734	     -0.84935670	    -14.68562117	    -20.64753832	      5.47284566	      9.34482306	      8.59470076	      9.33395981	      3.14941718	    -10.17123986
      3.82500000	    -11.34512229	     -1.36903882	      3.30493530	     -1.53119374	     -0.02862451	     -0.74928639	     34.28961340	      0.52175528	    -10.67026394	    -17.62220061	     -9.38884140	    -12.75302269	      1.68385527	     -3.64925541	     -1.35828679	    -15.09360841	    -21.88045999	      4.49317176	      9.45321099	      8.60003892	      9.50847397	      3.41081223	     -9.96957800
      3.83000000	    -11.31174484	     -1.59126931	      3.27876297	     -1.52430640	     -0.02825194	     -0.74855505	     34.10677112	      0.81576833	    -10.52102846	    -18.09061878	     -9.38763188	    -13.43911263	      1.31497358	     -3.33394211	     -1.85530825	    -14.97487790	    -23.15494808	      3.28058083	      9.12868156	      8.46729104	      9.63267030	      3.69751904	    -10.05793309
      3.83500000	    -11.34064466	     -1.73339638	      3.04600131	     -1.51754679	     -0.02800672	     -0.74727714	     34.03164729	      1.21945131	     -9.94077015	    -18.65640932	     -9.10639559	    -14.07591261	     -0.48551248	     -2.90550331	     -2.33740906	    -15.28778614	    -24.52806662	      1.95048049	      9.03012821	      8.89796025	      9.77736802	      3.89648490	     -9.89770336
      3.84000000	    -11.24310976	     -1.88891695	      2.98549000	     -1.51082789	     -0.02745958	     -0.74645519	     33.73165201	      1.50233910	     -9.70031795	    -19.04581334	     -8.96574740	    -14.61437877	     -0.75019811	     -2.54052538	     -2.77680989	    -15.15941195	    -25.94537534	      0.46915616	      8.57417670	      8.80186218	      9.79148194	      4.11752722	     -9.93031784
      3.84500000	    -11.18836891	     -2.04032244	      2.84341947	     -1.50398945	     -0.02697460	     -0.74549484	     33.45205189	      1.83984145	     -9.43901578	    -19.39916725	     -8.73173957	    -15.11283494	     -1.00440992	     -2.10622611	     -3.22872989	    -15.17856561	    -27.40975147	     -1.11021333	      8.11846288	      8.71454361	      9.87428313	      4.33659205	     -9.83519926
      3.85000000	    -11.24813610	     -2.12658401	      2.62701950	     -1.49746078	     -0.02662938	     -0.74420984	     33.31985353	      2.21049166	     -8.84277257	    -19.80928107	     -8.32567356	    -15.58380481	     -2.61987787	     -1.47322757	     -3.65390983	    -15.30788456	    -28.92927562	     -3.03754702	      7.64978653	      9.91364635	     10.01493493	      4.46902215	     -9.68941510
      3.85500000	    -11.09068626	     -2.27116619	      2.53892794	     -1.49094564	     -0.02595167	     -0.74335503	     32.86902047	      2.52646795	     -8.61329046	    -20.03885438	     -8.09416880	    -15.99711373	     -2.77153010	     -1.02230657	     -4.08321270	    -15.12106656	    -30.50479172	     -4.81746795	      7.03830098	      9.75269911	      9.92870057	      4.68001410	     -9.65805362
      3.86000000	    -11.13314353	     -2.37815069	      2.36906378	     -1.48444436	     -0.02554567	     -0.74228428	     32.63826919	      2.86982058	     -8.19095935	    -20.30244679	     -7.69599783	    -16.35472518	     -3.59685496	     -0.32965654	     -4.48518948	    -15.03157355	    -32.09069214	     -6.80140364	      6.39607531	     10.37540340	     10.06240816	      4.83657324	     -9.53459744
      3.86500000	    -10.99348649	     -2.53126563	      2.27387403	     -1.47819469	     -0.02493709	     -0.74142334	     32.18277726	      3.20089847	     -7.98062311	    -20.47335012	     -7.43452125	    -16.73363587	     -3.77920931	      0.24648755	     -4.91860917	    -14.81492605	    -33.77884580	     -8.55491416	      5.74882589	     10.20114489	      9.95298478	      5.04713822	     -9.47941563
      3.87000000	    -10.93279518	     -2.69975271	      2.14589122	     -1.47191411	     -0.02442597	     -0.74054602	     31.79043526	      3.55371760	     -7.79545569	    -20.60998769	     -7.13224383	    -17.03325267	     -3.95062510	      0.92413569	     -5.35386138	    -14.59614770	    -35.47936123	    -10.23914866	      5.09665799	     10.02408641	      9.94210119	      5.26985921	     -9.33846158
      3.87500000	    -10.93915046	     -2.80943403	      2.05115786	     -1.46590776	     -0.02397001	     -0.73972713	     31.47330704	      3.82778063	     -7.51478306	    -20.75037880	     -6.77972600	    -17.25244097	     -4.34072745	      1.73558292	     -5.69310046	    -14.26077121	    -37.20517267	    -11.89112125	      4.40020328	     10.05732590	      9.96005573	      5.42840136	     -9.29867298
      3.88000000	    -10.97233086	     -2.96284458	      1.93221478	     -1.45981067	     -0.02354625	     -0.73888759	     31.15671684	      4.14017134	     -7.35474723	    -20.86191576	     -6.28501223	    -17.25223805	     -4.96199425	      2.57480911	     -6.09016114	    -14.01412525	    -38.90844828	    -13.47241295	      3.72185784	     10.42508256	     10.03012689	      5.62848593	     -9.20392618
      3.88500000	    -10.86739058	     -3.17022539	      1.79410375	     -1.45381185	     -0.02299474	     -0.73811880	     30.65466162	      4.50608507	     -7.27351042	    -20.86868996	     -5.95195201	    -17.34174466	     -4.98513577	      3.27650765	     -6.53580255	    -13.80879498	    -40.63672265	    -14.69414113	      3.07163697	     10.30108369	      9.92483698	      5.90495379	     -9.01752223
      3.89000000	    -10.88389293	     -3.28379112	      1.74879507	     -1.44803793	     -0.02248250	     -0.73749688	     30.29092729	      4.70653114	     -7.21734018	    -20.89711590	     -5.52416442	    -17.23735596	     -5.15084294	      4.16923454	     -6.81000870	    -13.39436967	    -42.32930821	    -16.00701292	      2.21345478	     10.59984283	      9.92813829	      6.05325786	     -8.97517150
